<svg width="40" height="40" viewBox="0 0 40 40" fill="none" xmlns="http://www.w3.org/2000/svg">
<g clip-path="url(#clip0_3_2)">
<path d="M37.5963 1.83116H2.40374C1.07836 1.83116 0 2.90931 0 4.23479V35.7651C0 37.0906 1.07836 38.1688 2.40374 38.1688H37.5963C38.9215 38.1688 40 37.0906 40 35.7651V4.2349C40 2.90941 38.9215 1.83116 37.5963 1.83116ZM30.3487 5.86758C30.3487 5.3773 30.7461 4.97995 31.2362 4.97995H32.1238C32.6142 4.97995 33.0114 5.3773 33.0114 5.86758V6.87352C33.0114 7.36359 32.6141 7.76095 32.1238 7.76095H31.2362C30.7461 7.76095 30.3487 7.36359 30.3487 6.87352V5.86758ZM26.2214 5.86758C26.2214 5.3773 26.619 4.97995 27.1091 4.97995H27.9965C28.4868 4.97995 28.8841 5.3773 28.8841 5.86758V6.87352C28.8841 7.36359 28.4868 7.76095 27.9965 7.76095H27.1091C26.619 7.76095 26.2214 7.36359 26.2214 6.87352V5.86758ZM37.1154 35.2844H2.88453V10.4273H37.1152V35.2844H37.1154ZM37.1385 6.87352C37.1385 7.36359 36.7412 7.76095 36.2511 7.76095H35.3635C34.8732 7.76095 34.4759 7.36359 34.4759 6.87352V5.86758C34.4759 5.3773 34.8733 4.97995 35.3635 4.97995H36.2511C36.7413 4.97995 37.1385 5.3773 37.1385 5.86758V6.87352Z" fill="#C59B78"/>
<path d="M10.8196 15.4024H16.849C16.6791 16.4911 16.1018 17.6509 15.1315 18.8524C14.513 17.8617 14.1152 16.9008 13.8884 16.261C13.8311 16.0996 13.6785 15.9917 13.5074 15.9917H12.5152C12.3863 15.9917 12.265 16.0532 12.1888 16.1572C12.1127 16.2613 12.0908 16.3954 12.1298 16.5185C12.3649 17.2587 12.9063 18.712 13.9074 20.1887C12.7249 21.3383 11.547 22.1668 11.0913 22.472C10.9099 22.5936 10.8578 22.8373 10.9737 23.0224L11.4716 23.8187C11.5292 23.9108 11.6218 23.976 11.7281 23.9993C11.7567 24.0058 11.7856 24.0088 11.8144 24.0088C11.8928 24.0088 11.9702 23.986 12.0365 23.9424C12.5058 23.634 13.7233 22.792 14.9982 21.5706C15.4699 22.0622 16.5789 22.9238 17.2361 23.4018C17.3363 23.4747 17.4647 23.4974 17.5844 23.4637C17.7039 23.4296 17.801 23.3425 17.8481 23.2279L18.2196 22.3199C18.2942 22.1374 18.2262 21.9272 18.0585 21.8235C17.6304 21.5579 16.8243 21.0124 16.1664 20.3036C17.6109 18.6131 18.4347 16.965 18.616 15.403H18.9343C19.1576 15.403 19.3386 15.2219 19.3386 14.9986V13.9208C19.3386 13.6976 19.1577 13.5165 18.9343 13.5165H15.7857V12.9631C15.7857 12.7398 15.6047 12.5587 15.3814 12.5587H14.3727C14.1494 12.5587 13.9684 12.7397 13.9684 12.9631V13.5165H10.8197C10.5964 13.5165 10.4154 13.6975 10.4154 13.9208V14.9986C10.4153 15.2213 10.5963 15.4024 10.8196 15.4024Z" fill="#C59B78"/>
<path d="M26.8463 23.139C26.7937 22.9697 26.6374 22.8544 26.4601 22.8544H24.2136C24.0359 22.8544 23.879 22.9706 23.827 23.1405L21.1428 31.9169C21.1051 32.0394 21.128 32.1726 21.2044 32.276C21.2807 32.3789 21.4012 32.4396 21.5295 32.4396H22.9231C23.1046 32.4396 23.264 32.3184 23.3126 32.1437L23.9144 29.9785H26.6603L27.3119 32.1516C27.3631 32.3228 27.5207 32.4398 27.6992 32.4398H29.1804C29.3091 32.4398 29.4297 32.3787 29.5058 32.2756C29.5821 32.172 29.6046 32.0386 29.5664 31.9159L26.8463 23.139ZM24.2255 28.3596L25.2369 24.4771H25.2645L26.346 28.3596H24.2255Z" fill="#C59B78"/>
<path d="M6.42201 25.3379L7.37236 25.563L7.3897 25.7858C7.59715 28.4579 9.02963 30.7993 11.3196 32.2092C12.6294 33.0157 14.1387 33.442 15.6844 33.442H15.6851H15.6853C16.792 33.442 17.8687 33.2267 18.8852 32.8019C18.9475 32.7761 18.9972 32.725 19.0213 32.6617C19.0452 32.5992 19.0426 32.5285 19.0138 32.4679L18.3242 31.0207C18.3038 30.9769 18.2715 30.9408 18.2304 30.9154C18.1641 30.8749 18.0756 30.8687 18.0086 30.8964C17.2546 31.2006 16.4681 31.355 15.6705 31.3552C14.5317 31.3552 13.4072 31.0336 12.4188 30.4249C11.0145 29.5601 9.99559 28.1485 9.62332 26.5513L9.51113 26.0701L10.4332 26.2888C10.4448 26.2914 10.4566 26.2932 10.4686 26.2941C10.4725 26.2943 10.482 26.2945 10.4859 26.2945C10.5583 26.2945 10.6239 26.2671 10.6697 26.2185C10.7306 26.1542 10.7526 26.0617 10.7272 25.9771L9.54448 22.0289C9.52051 21.9488 9.44759 21.8791 9.36722 21.8599C9.36059 21.858 9.35375 21.857 9.34702 21.856L9.33621 21.8544C9.25951 21.8441 9.18068 21.8741 9.12805 21.9299L6.29972 24.9278C6.23883 24.9918 6.2169 25.0844 6.2423 25.1691C6.26677 25.2505 6.33939 25.3185 6.42201 25.3379Z" fill="#C59B78"/>
<path d="M21.6757 16.1386C21.696 16.1822 21.7284 16.2185 21.7695 16.2439C21.8356 16.2845 21.9244 16.2906 21.9913 16.2628C22.7454 15.9585 23.5318 15.8041 24.3294 15.8041C25.4682 15.8041 26.5927 16.1257 27.5812 16.7343C28.9855 17.599 30.0043 19.0108 30.3766 20.6078L30.4888 21.089L29.5667 20.8703C29.5552 20.8679 29.5433 20.866 29.5314 20.8651C29.5274 20.8649 29.518 20.8646 29.514 20.8646C29.4417 20.8646 29.3759 20.8921 29.3303 20.9408C29.2691 21.005 29.2473 21.0975 29.2728 21.1822L30.4556 25.1304C30.4794 25.2105 30.5523 25.2801 30.6328 25.2992C30.6393 25.3012 30.6461 25.3022 30.6529 25.3032L30.6636 25.3048C30.7403 25.3151 30.819 25.285 30.8717 25.2293L33.7001 22.2314C33.7609 22.1674 33.7829 22.0749 33.7575 21.9901C33.733 21.9078 33.6603 21.8397 33.5775 21.8207L32.6272 21.5956L32.6099 21.3728C32.4025 18.7006 30.9701 16.3594 28.6801 14.9493C27.3703 14.1428 25.8608 13.7164 24.3153 13.7164H24.3146H24.3142C23.2076 13.7164 22.131 13.932 21.1145 14.3568C21.0522 14.3826 21.0024 14.4337 20.9782 14.497C20.9545 14.5595 20.9571 14.6301 20.9857 14.6908L21.6757 16.1386Z" fill="#C59B78"/>
</g>
<defs>
<clipPath id="clip0_3_2">
<rect width="40" height="40" fill="white"/>
</clipPath>
</defs>
</svg>
